<svg width="170" height="58" viewBox="0 0 170 58" fill="none" xmlns="http://www.w3.org/2000/svg">
<path d="M15.5852 10.8908C15.757 8.41511 15.681 4.74455 15.5998 2.97116C15.5478 2.90817 15.5115 2.84203 15.4984 2.7709C15.518 2.69986 15.5444 2.6258 15.5784 2.54949C15.7715 2.11624 16.2082 1.61052 17.0226 1.17414C17.7238 1.00306 18.8409 0.952548 19.524 1.04712C21.078 1.26227 24.39 1.2978 26.0017 2.90958C26.7781 3.68592 27.6397 4.70897 27.6387 6.24566C27.6361 9.99778 27.271 11.629 26.5979 12.7156C25.8216 13.9689 24.7842 17.3864 26.0432 19.6289C26.2623 20.019 26.5798 20.4639 26.9077 20.4882C27.4676 20.5296 27.9788 20.3285 28.5498 20.1395C29.9794 19.6665 31.4556 19.5829 32.7426 20.2302C34.9096 21.3202 37.8276 23.6363 37.7908 25.8111C37.7454 28.4901 37.2213 31.717 35.2803 32.7593C34.7204 33.06 28.979 31.2754 26.9868 33.4942C26.5992 33.9258 25.9437 36.0754 26.6887 37.5561C27.211 38.5943 27.5476 39.9998 28.809 40.839C29.4558 41.2693 30.2501 41.3976 31.0124 41.1799C32.2242 40.8339 33.4998 40.5446 34.6841 40.0562C35.9413 39.5378 37.8218 38.9371 40.4555 38.8911C47.9481 38.7602 49.3658 38.0523 50.7554 38.3739C51.3153 38.5035 52.1505 38.8233 52.6139 39.9836C53.3035 41.71 53.8052 43.8927 53.6015 45.7706C53.3864 47.7549 53.8028 49.5849 52.2575 50.995C50.7009 52.4155 49.4743 52.5777 47.5917 52.8899C46.2943 53.105 45.0549 54.1005 35.0846 53.2761C31.9494 53.0169 30.7271 52.944 30.096 52.8018C28.7507 52.4985 26.1507 52.0531 24.0849 51.7208C21.4098 51.2906 19.7919 51.1842 17.7821 50.5116C16.4847 50.0774 14.832 49.8926 13.982 48.911C13.1201 47.9156 12.6279 44.9097 13.2095 42.7313C13.5556 41.4352 13.8242 40.3724 14.2464 39.3628C14.6806 38.3247 16.1265 34.8561 14.586 34.57C13.8952 34.4416 13.1966 34.51 12.6419 34.7022C11.3886 35.1363 7.76493 36.0616 5.64309 35.1739C4.30166 34.6127 2.71357 34.3656 2.10223 33.0976C1.45549 31.7562 0.777043 30.5287 1.06926 28.6469C1.28441 27.2614 1.62919 25.3629 2.27979 23.8087C2.93301 22.2482 4.48725 19.9362 6.17059 18.929C7.25151 18.2823 12.7147 20.3403 13.9016 18.1514C14.1596 17.6757 14.6631 16.6726 14.9385 15.4257C15.282 13.8704 15.4741 12.4928 15.5852 10.8908Z" fill="white"/>
<path d="M15.5412 2.03991C15.6267 2.81237 15.8004 7.78928 15.5852 10.8908C15.4741 12.4928 15.282 13.8704 14.9385 15.4257C14.6631 16.6726 14.1596 17.6757 13.9016 18.1514C12.7147 20.3403 7.25151 18.2823 6.17059 18.929C4.48725 19.9362 2.93301 22.2482 2.27979 23.8087C1.62919 25.3629 1.28441 27.2614 1.06926 28.6469C0.777043 30.5287 1.45549 31.7562 2.10223 33.0976C2.71357 34.3656 4.30166 34.6127 5.64309 35.1739C7.76493 36.0616 11.3886 35.1363 12.6419 34.7022C13.1966 34.51 13.8952 34.4416 14.586 34.57C16.1265 34.8561 14.6806 38.3247 14.2464 39.3628C13.8242 40.3724 13.5556 41.4352 13.2095 42.7313C12.6279 44.9097 13.1201 47.9156 13.982 48.911C14.832 49.8926 16.4847 50.0774 17.7821 50.5116C19.7919 51.1842 21.4098 51.2905 24.0849 51.7208C26.1507 52.0531 28.7507 52.4985 30.096 52.8018C30.7271 52.944 31.9494 53.0169 35.0846 53.2761C45.0549 54.1005 46.2943 53.105 47.5917 52.8899C49.4743 52.5777 50.7009 52.4155 52.2575 50.995C53.8028 49.5849 53.3864 47.7549 53.6015 45.7706C53.8052 43.8927 53.3035 41.71 52.6139 39.9836C52.1505 38.8233 51.3153 38.5035 50.7554 38.3739C49.3658 38.0523 47.9481 38.7602 40.4555 38.8911C37.8218 38.9371 35.9413 39.5378 34.6841 40.0562C33.4998 40.5446 32.2242 40.8339 31.0124 41.1799C30.2501 41.3976 29.4558 41.2693 28.809 40.839C27.5476 39.9998 27.211 38.5943 26.6887 37.5561C25.9437 36.0754 26.5992 33.9258 26.9868 33.4942C28.979 31.2754 34.7204 33.06 35.2803 32.7593C37.2213 31.717 37.7454 28.4901 37.7908 25.8111C37.8276 23.6363 34.9096 21.3202 32.7426 20.2302C31.4556 19.5829 29.9794 19.6665 28.5498 20.1395C27.9788 20.3285 27.4676 20.5296 26.9077 20.4882C26.5798 20.4639 26.2623 20.019 26.0432 19.6289C24.7842 17.3864 25.8216 13.9689 26.5979 12.7156C27.271 11.629 27.6361 9.99778 27.6387 6.24566C27.6397 4.70897 26.7781 3.68592 26.0017 2.90958C24.39 1.2978 21.078 1.26227 19.524 1.04712C18.8409 0.952548 17.7238 1.00306 17.0226 1.17414C16.0648 1.68738 15.6293 2.29653 15.4984 2.7709C15.5386 2.98864 15.7952 3.15972 16.0596 3.33598" stroke="black" stroke-width="2" stroke-linecap="round"/>
<path d="M66.9135 51.7208C67.2181 51.5497 67.3387 49.9505 67.6432 50.7722C68.5142 50.6012 68.8563 50.6865 69.1596 50.8615C69.4629 51.0365 69.7195 51.2931 69.8478 52.0824C69.9761 54.1548 70.0167 56.1545 69.3229 56.7366C69.017 56.9932 68.5843 57.0225 68.2433 56.9492C67.6406 56.8195 67.079 56.5044 66.6024 55.9084C66.0853 55.2617 65.695 54.3741 65.8728 53.4886C66.0024 52.8432 66.2504 52.0933 66.9135 51.7208Z" fill="white" stroke="black" stroke-width="2" stroke-linecap="round"/>
<path d="M77.7339 52.3302C80.9469 54.6814 83.4538 51.9177 83.4798 51.9177C83.6082 51.814 83.5498 52.888 83.5847 52.3302C83.622 50.845 83.367 48.2196 82.9889 44.872C82.8607 43.1724 82.8544 41.4728 83.578 36.5525C84.3016 31.6321 85.7123 23.7304 86.5056 19.5073C87.2989 15.2842 87.4697 14.7557 87.6584 14.4047C87.8471 14.0538 88.0485 13.818 88.2458 13.8538C88.6338 13.9242 89.375 15.2597 91.783 17.8645C93.339 19.5476 95.6885 21.7846 97.4094 23.7673C99.1303 25.7499 100.049 28.0985 100.828 27.912C101.673 27.7095 102.15 25.7969 103.298 23.7966C105.185 20.5092 106.146 19.289 106.989 18.9349C108.548 18.28 111.048 17.6149 112.916 18.6814C113.187 18.8365 113.247 19.001 113.772 22.0669C114.297 25.1328 115.257 30.9245 115.587 36.316C115.918 41.7074 115.628 46.5518 115.546 49.0967C115.463 51.6416 115.585 51.8798 115.98 51.9969C116.374 52.1139 117.035 52.177 117.497 52.0424C119.134 51.5651 124.215 53.2871 125.77 50.4425C126.447 49.2036 126.703 48.1909 126.533 44.9567C126.375 41.9529 126.049 36.3472 125.569 32.0876C125.089 27.828 124.473 25.0001 123.933 22.9133C123.394 20.8265 122.144 7.3509 121.703 5.7019C120.525 4.85498 114.819 5.37763 112.923 5.7019C111.777 5.8978 108.913 6.35198 105.654 8.1551C103.414 9.39433 102.406 10.6043 102.192 10.3501C101.672 9.73174 99.4946 5.37208 97.0799 4.57138C96.2821 4.30681 95.3705 4.07635 92.586 3.98248C90.2256 3.90291 86.0529 3.81899 83.8216 3.7303C81.3061 3.6303 79.65 3.06471 78.9784 4.07219C78.6896 4.50531 78.3014 5.31868 77.7339 6.86935C77.1664 8.42002 76.4416 10.6407 75.7641 13.2034C75.0866 15.7661 76.2302 18.9711 75.9287 20.4763C76.2792 23.1112 75.3633 34.7472 75.9287 38.63C76.4941 42.5128 75.5796 50.7537 77.7339 52.3302Z" fill="white" stroke="black" stroke-width="2" stroke-linecap="round"/>
<path fill-rule="evenodd" clip-rule="evenodd" d="M165.278 47.3039C165.545 47.7584 165.912 48.3847 166.202 48.9414C166.403 49.3261 166.349 49.8262 166.304 50.2439L166.303 50.248C166.283 50.4391 166.168 50.5698 166.006 50.6972C165.641 50.9833 164.31 51.3267 161.911 51.8478C160.582 52.1366 158.997 52.3345 157.068 52.4519C152.915 52.7047 150.173 52.4758 149.391 52.3C148.791 52.1653 146.562 50.8889 143.241 48.9568C139.859 46.9896 138.698 44.8778 138.144 43.6484C137.823 42.935 137.615 41.5346 137.267 37.6688C136.918 33.803 136.552 27.4716 136.428 23.6037C136.266 18.5257 136.738 16.8947 137.242 15.9591C138.549 13.5305 139.662 12.885 140.855 12.1951C142.316 11.3499 143.323 10.3548 144.067 9.61916C144.53 9.16222 144.891 8.80534 145.197 8.64654C145.924 8.26911 147.116 8.18865 148.806 8.07472C148.848 8.07188 148.89 8.06901 148.933 8.06613C151.465 7.89503 153.243 8.06785 154.496 8.3705C156.025 8.73998 157.389 9.13355 158.463 9.44333C159.291 9.68228 159.946 9.87138 160.371 9.96111C162.267 10.361 163.362 11.4158 165.5 13.6086C166.841 14.9841 167.542 17.099 168.142 19.0522C168.59 20.5086 168.546 21.8297 168.425 23.4616C168.179 26.8056 167.388 28.4014 166.551 30.0888C166.422 30.3493 166.291 30.6119 166.162 30.8835C165.867 31.5017 165.28 31.7311 164.751 31.9373C164.587 32.0015 164.428 32.0634 164.286 32.1342C164.057 32.248 163.656 32.3638 162.951 32.5672C162.704 32.6386 162.419 32.7207 162.092 32.8174C160.078 33.4114 157.614 33.686 155.346 33.6321C153.424 33.5864 152.239 33.2289 151.337 32.8532C148.339 31.6047 145.829 31.3113 144.752 31.497C144.087 31.6117 143.598 33.1553 143.087 35.7039C142.696 37.6506 143.135 39.3127 143.375 40.1221C143.818 41.6117 145.811 43.1767 146.913 43.9411C148.741 45.2085 151.001 45.6049 153.778 46.0916C153.906 46.1141 154.035 46.1367 154.165 46.1596C154.649 46.2571 155.149 46.3651 155.664 46.4761C156.834 46.7286 158.077 46.997 159.373 47.1948C160.36 47.3454 161.303 47.1602 162.266 46.9713C163.124 46.8029 163.998 46.6314 164.931 46.6924C164.964 46.7682 165.098 46.9968 165.278 47.3039ZM155.378 27.1356C152.474 26.6307 150.731 25.971 150.671 25.8619C150.407 25.3783 150.334 24.4344 150.407 23.8569C150.622 22.5655 150.916 21.5512 151.988 20.4337C153.007 19.6776 154.39 19.4131 155.326 19.7135C155.414 19.742 155.504 19.7698 155.596 19.7981C156.423 20.0531 157.368 20.3444 158.201 21.4359C158.7 22.0908 159.034 22.7214 159.031 23.477C159.025 24.6627 158.961 25.4636 158.413 25.9717C157.809 26.53 156.861 27.3935 155.378 27.1356Z" fill="white" stroke="black" stroke-width="2" stroke-linecap="round"/>
</svg>
