<svg width="430" height="88" viewBox="0 0 430 88" fill="none" xmlns="http://www.w3.org/2000/svg">
<path fill-rule="evenodd" clip-rule="evenodd" d="M36.3371 12.9084C37.148 14.9084 39.5272 32.0005 39.6409 33.3544C39.8919 36.3414 39.6803 40.4121 39.5666 42.5128C39.5369 43.0606 39.4651 43.7035 39.3765 44.4966C39.2204 45.8942 39.0122 47.758 38.8908 50.3894C38.8131 52.0729 38.5854 53.0705 38.3415 54.1388C38.2876 54.3748 38.2329 54.6144 38.1789 54.8655C37.477 58.1289 37.0537 59.7854 36.6764 61.0255C36.3896 61.968 36.2122 62.8464 36.0304 63.7465C35.9496 64.1467 35.8678 64.5514 35.7753 64.9678C35.74 65.1266 35.7034 65.2922 35.6654 65.4641C35.4519 66.4302 35.1945 67.5951 34.8742 68.8717C34.7996 69.169 34.7299 69.4507 34.6631 69.7203C34.4118 70.7355 34.2029 71.5794 33.9359 72.44C33.6857 73.2467 33.1841 73.9727 32.712 74.6559C32.5354 74.9115 32.3629 75.1612 32.2092 75.4068C32.105 75.5735 32.0023 75.7448 31.8968 75.9208C31.4697 76.6334 30.9961 77.4236 30.1841 78.297C29.242 79.3104 27.6734 80.285 25.9433 81.0397C24.6116 81.6206 22.6454 82.1638 20.8376 82.5805C19.0748 82.9869 15.0087 82.8441 12.5375 82.6571C11.733 82.5963 10.9649 82.3642 10.2283 82.1416C9.95491 82.059 9.68584 81.9777 9.42087 81.907C8.34554 81.6199 7.00201 80.8149 5.87202 80.1378C5.72451 80.0495 5.58063 79.9632 5.44147 79.8807C4.41338 79.2705 3.79761 77.7621 3.30794 76.5626L3.29915 76.541C3.11499 76.0899 2.953 75.6314 2.77095 75.116C2.49347 74.3306 2.16931 73.413 1.64904 72.1888C1.1123 70.9259 0.857212 64.9531 1.08136 61.4096C1.14057 60.4735 1.56291 59.5604 1.94258 58.7395C2.04979 58.5077 2.15361 58.2832 2.24488 58.0677C2.69302 57.0095 4.0065 56.564 4.9087 56.2633C5.35812 56.1135 6.55431 56.0369 8.0929 56.1484C8.68302 56.1912 9.00254 56.5655 9.28207 56.8929C9.378 57.0053 9.46922 57.1121 9.56505 57.1982C10.049 57.6327 10.1874 58.3068 10.3255 58.9793C10.3875 59.2815 10.4495 59.5834 10.5427 59.8631C10.6463 60.1738 10.7673 60.484 10.8954 60.8124C11.1394 61.4376 11.4089 62.1284 11.6319 63.0124C12.102 64.8757 11.8483 66.5227 11.6357 67.9025C11.4985 68.7925 11.3785 69.5714 11.481 70.2256C11.6824 71.5115 15.0312 72.8466 17.0339 73.644C18.1659 74.0948 19.8089 74.2376 21.1971 74.3582C21.4876 74.3834 21.767 74.4077 22.0281 74.4336C23.2013 74.5501 24.0079 72.8885 24.6054 71.6577L24.6582 71.549C25.5183 69.7806 26.1542 67.9875 26.7609 66.2769C26.9119 65.8511 27.0612 65.4301 27.2116 65.0162C27.5048 64.2093 27.7921 63.3428 28.0738 62.4932C28.3813 61.5659 28.6821 60.6586 28.9766 59.871C29.2476 59.1461 29.3687 58.3468 29.4869 57.5669C29.5815 56.9424 29.6743 56.3304 29.8405 55.779C30.0912 54.9477 30.147 53.9792 30.2068 52.941C30.2434 52.3063 30.2815 51.6453 30.3665 50.9739C30.5526 49.5051 30.7416 47.5577 30.8554 45.644C30.894 44.9947 31.0435 40.9821 31.0063 35.1262C30.9932 33.0613 30.8948 32.8385 30.745 32.7608C30.0787 32.4151 29.253 33.3095 28.5774 34.0413C28.4835 34.143 28.3925 34.2416 28.3053 34.3332C27.6585 35.0126 26.3747 36.0344 25.3095 36.8823L25.3087 36.8829C25.1093 37.0416 24.9177 37.1941 24.7393 37.3372C23.8128 38.0802 22.2669 38.9118 19.7518 39.7397C18.3435 40.2032 17.0312 40.2092 14.7808 40.2194C14.3062 40.2216 13.79 40.2239 13.2223 40.2308C11.3448 40.2535 9.87254 39.2948 8.67185 38.3577C6.81505 36.9084 5.67106 34.7354 4.96065 33.386C4.86202 33.1987 4.77173 33.0272 4.68907 32.8757C3.98195 31.5801 3.41178 29.6127 3.11104 27.8848C2.82359 26.2333 2.55607 24.2429 2.36561 22.8257C2.32181 22.4998 2.28209 22.2042 2.24713 21.9501C2.07228 20.6787 1.98357 17.84 2.20771 15.718C2.34555 14.413 3.10541 12.6453 4.04479 11.1754C4.94038 9.77401 7.5928 7.1757 9.48846 5.69117C10.8828 4.59919 12.4902 4.15257 17.7694 4.03656C19.221 4.00466 20.1619 4.81352 21.3456 5.83112C21.6411 6.08523 21.9519 6.35237 22.2895 6.62266C23.0633 7.24222 23.9922 8.37639 24.886 9.46776C25.5573 10.2873 26.2088 11.0828 26.76 11.618C27.4355 12.274 27.9966 13.067 28.5734 13.8821C28.6325 13.9656 28.6918 14.0493 28.7513 14.1332C28.9023 14.3457 28.9888 14.589 29.0652 14.8041C29.1316 14.991 29.1904 15.1565 29.2774 15.2618C29.6786 15.7476 29.9993 14.7636 30.3376 13.7253C30.5016 13.2223 30.6697 12.7065 30.8531 12.3389C31.2976 11.4481 31.9028 10.7859 32.4742 10.1605C32.6933 9.92066 32.9075 9.68624 33.1058 9.44643C33.2758 9.2408 33.5169 9.10852 33.7805 9.0691C34.0441 9.02968 34.3414 9.10402 34.5318 9.25382C34.7124 9.50825 34.8747 9.79992 35.043 10.1023C35.1213 10.2431 35.2008 10.3861 35.2842 10.5289C35.398 10.7553 36.0264 12.142 36.3371 12.9084ZM14.4351 18.0998C14.8038 17.9215 16.7115 18.0999 17.5166 18.256C17.6338 18.2787 17.7515 18.2735 17.8552 18.2689C17.9203 18.266 17.9799 18.2634 18.0303 18.2681C18.2318 18.3038 18.3754 18.3516 18.5179 18.4234C18.565 18.4595 18.6317 18.5036 18.7144 18.5582C19.1774 18.8639 20.1391 19.499 20.925 20.9041C21.2568 21.4974 21.4797 21.9964 21.494 22.7177C21.5176 23.9073 21.5108 24.8472 21.3497 25.2609C21.1832 25.6885 20.8466 26.1347 20.3355 26.4265C19.9201 26.6637 19.5625 26.8112 18.9859 26.8177C18.7956 26.8198 18.6026 26.8249 18.4103 26.83C17.5443 26.8528 16.6934 26.8753 16.1799 26.6262C15.5118 26.3022 14.7304 25.8163 13.81 24.3953C13.3949 23.7544 13.1552 23.3065 13.0862 22.8838C13.0707 22.7889 13.0528 22.6903 13.0343 22.5891C12.9394 22.0691 12.8315 21.4774 12.9805 20.9305C13.3284 19.6534 13.8568 18.3795 14.4351 18.0998Z" fill="white"/>
<path d="M24.6582 71.549L24.6054 71.6577M24.6054 71.6577C24.6232 71.621 24.6408 71.5848 24.6582 71.549C25.5183 69.7806 26.1542 67.9875 26.7609 66.2769C26.9119 65.8511 27.0612 65.4301 27.2116 65.0162C27.5048 64.2093 27.7921 63.3428 28.0738 62.4932C28.3813 61.5659 28.6821 60.6586 28.9766 59.871C29.2476 59.1461 29.3687 58.3468 29.4869 57.5669C29.5815 56.9424 29.6743 56.3304 29.8405 55.779C30.0912 54.9477 30.147 53.9792 30.2068 52.941C30.2434 52.3063 30.2815 51.6453 30.3665 50.9739C30.5526 49.5051 30.7416 47.5577 30.8554 45.644C30.894 44.9947 31.0435 40.9821 31.0063 35.1262C30.9932 33.0613 30.8948 32.8385 30.745 32.7608C30.0787 32.4151 29.253 33.3095 28.5774 34.0413C28.4835 34.143 28.3925 34.2416 28.3053 34.3332C27.6585 35.0126 26.3747 36.0344 25.3095 36.8823L25.3087 36.8829C25.1093 37.0416 24.9177 37.1941 24.7393 37.3372C23.8128 38.0802 22.2669 38.9118 19.7518 39.7397C18.3435 40.2032 17.0312 40.2092 14.7808 40.2194C14.3062 40.2216 13.79 40.2239 13.2223 40.2308C11.3448 40.2535 9.87254 39.2948 8.67185 38.3577C6.81505 36.9084 5.67106 34.7354 4.96065 33.386C4.86202 33.1987 4.77173 33.0272 4.68907 32.8757C3.98195 31.5801 3.41178 29.6127 3.11104 27.8848C2.82359 26.2333 2.55607 24.2429 2.36561 22.8257C2.32181 22.4998 2.28209 22.2042 2.24713 21.9501C2.07228 20.6787 1.98357 17.84 2.20771 15.718C2.34555 14.413 3.10541 12.6453 4.04479 11.1754C4.94038 9.77401 7.5928 7.1757 9.48846 5.69117C10.8828 4.59919 12.4902 4.15257 17.7694 4.03656C19.221 4.00466 20.1619 4.81352 21.3456 5.83112C21.6411 6.08523 21.9519 6.35237 22.2895 6.62266C23.0633 7.24222 23.9922 8.37639 24.886 9.46776C25.5573 10.2873 26.2088 11.0828 26.76 11.618C27.4355 12.274 27.9966 13.067 28.5734 13.8821C28.6325 13.9656 28.6918 14.0493 28.7513 14.1332C28.9023 14.3457 28.9888 14.589 29.0652 14.8041C29.1316 14.991 29.1904 15.1565 29.2774 15.2618C29.6786 15.7476 29.9993 14.7636 30.3376 13.7253C30.5016 13.2223 30.6697 12.7065 30.8531 12.3389C31.2976 11.4481 31.9028 10.7859 32.4742 10.1605C32.6933 9.92066 32.9075 9.68624 33.1058 9.44643C33.2758 9.2408 33.5169 9.10852 33.7805 9.0691C34.0441 9.02968 34.3414 9.10402 34.5318 9.25382C34.7124 9.50825 34.8747 9.79992 35.043 10.1023C35.1213 10.2431 35.2008 10.3861 35.2842 10.5289C35.398 10.7553 36.0264 12.142 36.3371 12.9084C37.148 14.9084 39.5272 32.0005 39.6409 33.3544C39.8919 36.3414 39.6803 40.4121 39.5666 42.5128C39.5369 43.0606 39.4651 43.7035 39.3765 44.4966C39.2204 45.8942 39.0122 47.758 38.8908 50.3894C38.8131 52.0729 38.5854 53.0705 38.3415 54.1388C38.2876 54.3748 38.2329 54.6144 38.1789 54.8655C37.477 58.1289 37.0537 59.7854 36.6764 61.0255C36.3896 61.968 36.2122 62.8464 36.0304 63.7465C35.9496 64.1467 35.8678 64.5514 35.7753 64.9678C35.74 65.1266 35.7034 65.2922 35.6654 65.4641C35.4519 66.4302 35.1945 67.5951 34.8742 68.8717C34.7996 69.169 34.7299 69.4507 34.6631 69.7203C34.4118 70.7355 34.2029 71.5794 33.9359 72.44C33.6857 73.2467 33.1841 73.9727 32.712 74.6559C32.5354 74.9115 32.3629 75.1612 32.2092 75.4068C32.105 75.5735 32.0023 75.7448 31.8968 75.9208C31.4697 76.6334 30.9961 77.4236 30.1841 78.297C29.242 79.3104 27.6734 80.285 25.9433 81.0397C24.6116 81.6206 22.6454 82.1638 20.8376 82.5805C19.0748 82.9869 15.0087 82.8441 12.5375 82.6571C11.733 82.5963 10.9649 82.3642 10.2283 82.1416C9.95491 82.059 9.68584 81.9777 9.42087 81.907C8.34554 81.6199 7.00201 80.8149 5.87202 80.1378C5.72451 80.0495 5.58063 79.9632 5.44147 79.8807C4.41338 79.2705 3.79761 77.7621 3.30794 76.5626L3.29915 76.541C3.11499 76.0899 2.953 75.6314 2.77095 75.116C2.49347 74.3306 2.16931 73.413 1.64904 72.1888C1.1123 70.9259 0.857212 64.9531 1.08136 61.4096C1.14057 60.4735 1.56291 59.5604 1.94258 58.7395C2.04979 58.5077 2.15361 58.2832 2.24488 58.0677C2.69302 57.0095 4.0065 56.564 4.9087 56.2633C5.35812 56.1135 6.55431 56.0369 8.0929 56.1484C8.68302 56.1912 9.00254 56.5655 9.28207 56.8929C9.378 57.0053 9.46922 57.1121 9.56505 57.1982C10.049 57.6327 10.1874 58.3068 10.3255 58.9793C10.3875 59.2815 10.4495 59.5834 10.5427 59.8631C10.6463 60.1738 10.7673 60.484 10.8954 60.8124C11.1394 61.4376 11.4089 62.1284 11.6319 63.0124C12.102 64.8757 11.8483 66.5227 11.6357 67.9025C11.4985 68.7925 11.3785 69.5714 11.481 70.2256C11.6824 71.5115 15.0312 72.8466 17.0339 73.644C18.1659 74.0948 19.8089 74.2376 21.1971 74.3582C21.4876 74.3834 21.767 74.4077 22.0281 74.4336C23.2013 74.5501 24.0079 72.8885 24.6054 71.6577ZM17.5166 18.256C16.7115 18.0999 14.8038 17.9215 14.4351 18.0998C13.8568 18.3795 13.3284 19.6534 12.9805 20.9305C12.8315 21.4774 12.9394 22.0691 13.0343 22.5891C13.0528 22.6903 13.0707 22.7889 13.0862 22.8838C13.1552 23.3065 13.3949 23.7544 13.81 24.3953C14.7304 25.8163 15.5118 26.3022 16.1799 26.6262C16.6934 26.8753 17.5443 26.8528 18.4103 26.83C18.6026 26.8249 18.7956 26.8198 18.9859 26.8177C19.5625 26.8112 19.9201 26.6637 20.3355 26.4265C20.8466 26.1347 21.1832 25.6885 21.3497 25.2609C21.5108 24.8472 21.5176 23.9073 21.494 22.7177C21.4797 21.9964 21.2568 21.4974 20.925 20.9041C20.1391 19.499 19.1774 18.8639 18.7144 18.5582C18.6317 18.5036 18.565 18.4595 18.5179 18.4234C18.3754 18.3516 18.2318 18.3038 18.0303 18.2681C17.9799 18.2634 17.9203 18.266 17.8552 18.2689C17.7515 18.2735 17.6338 18.2787 17.5166 18.256Z" stroke="black" stroke-width="2" stroke-linecap="round"/>
<path d="M102.044 14.7021C101.958 13.6251 101.846 12.0486 101.846 11.4881C101.961 10.9768 103.428 8.94643 103.57 8.80504C103.88 8.55188 105.749 8.44012 107.041 8.66788C107.209 8.94982 107.44 9.26205 107.577 9.628C107.831 10.3062 108.14 11.1059 108.904 13.1595C109.355 14.3702 109.84 15.3708 109.918 18.9016C109.974 21.401 109.974 25.9273 110.003 28.3344C110.032 30.7415 110.078 31.1116 110.979 31.1606C113.547 31.3003 115.329 31.4607 115.394 31.8109C115.562 32.7193 116.139 33.8598 115.703 39.1862C115.562 40.9016 115.672 41.8758 115.307 42.5915C115.22 42.7609 115.058 42.8843 114.883 42.9573C114.545 43.0979 110.365 41.6862 109.352 43.3815C109.184 43.6634 108.964 44.0003 108.986 44.9461C109.074 48.691 109.509 50.5028 109.976 51.8796C110.543 53.5509 111.004 55.5403 111.868 56.1383C112.518 56.5888 113.286 56.9458 114.127 57.0112C115.227 57.0968 118.396 57.1258 121.717 57.0671C123.298 57.0392 126.203 57.0392 127.944 57.0968C129.685 57.1543 130.244 57.2674 130.667 57.322C131.995 57.493 133.065 57.8463 133.713 58.3117L133.727 58.3223C133.927 58.4655 134.235 58.6863 134.247 59.3658C134.301 62.4613 134.395 63.4187 133.849 65.0597C133.454 66.2442 133.137 67.1596 132.522 68.0205L132.52 68.0234C132.38 68.2203 132.261 68.3867 130.601 68.4701C128.933 68.5539 125.803 68.5118 124.066 68.5827C121.994 68.6674 120.1 68.8417 117.611 68.6945C116.179 68.6098 114.74 68.6736 111.774 68.2949C109.744 68.0358 106.727 67.5329 105.074 67.2238C103.421 66.9148 103.141 66.8067 102.887 66.7471C101.667 66.461 99.904 66.1602 99.6424 65.2765C99.1369 63.5687 99.3022 61.1098 100.013 57.2559C100.326 55.5626 100.786 54.2391 101.255 51.5011C101.508 50.0287 101.47 48.212 101.706 46.9028C101.904 45.8021 102.889 44.4814 101.955 43.688C101.724 43.4924 101.264 43.4283 100.967 43.5212C100.15 43.7769 98.7552 44.2058 97.298 43.8302C96.1973 43.5466 95.0212 43.2876 94.8181 42.385C94.7342 42.0124 94.7345 41.3978 94.763 41.004C94.9036 39.066 94.823 36.3424 95.1017 35.3889C95.3574 34.5143 95.5684 33.5304 96.2887 33.218C96.939 32.9361 97.5886 32.6076 98.2928 32.4848C99.2589 32.3163 100.635 32.4053 101.114 31.9192C101.227 31.8049 101.291 31.6379 101.31 31.2944C101.396 29.7729 101.842 28.5601 102.073 24.1222C102.185 21.9767 102.185 18.6798 102.156 16.9162C102.127 15.1525 102.062 14.93 102.044 14.7021Z" fill="white" stroke="black" stroke-width="2" stroke-linecap="round"/>
<path d="M57.597 12.2125C60.7632 12.084 62.8182 12.0806 62.8339 12.0806C65.1841 12.0859 74.8963 13.3799 77.4828 13.4977C80.9449 13.6554 82.2217 13.8126 82.5652 14.2769C82.8578 14.6724 82.8886 15.3468 83.4051 19.7195C83.5936 21.3155 83.839 24.1883 83.5057 27.6893C83.3575 29.2459 83.1577 29.8623 82.7568 30.3119C82.4216 30.6878 82.082 31.017 80.183 31.5109C75.3884 32.7579 71.8731 33.6175 71.7359 34.1297C71.6601 34.4129 71.7396 34.8194 71.8172 40.8498C71.8948 46.8802 71.8691 58.1941 72.0754 64.4257C72.3189 71.7826 72.2075 73.8246 73.2292 74.2261C74.5894 74.7605 76.0123 74.9828 76.0982 75.4007C76.1416 75.6114 76.096 75.8409 76.1698 76.0545C76.9156 78.214 79.259 82.8498 78.107 83.1399C77.7178 83.2379 73.8908 83.4793 68.7356 84.0172C65.552 84.3495 63.2438 84.5552 62.1448 84.8283C59.13 85.5777 56.7963 86.4614 55.1715 86.6062C54.8663 86.6334 54.7393 86.4422 54.6572 86.1983C54.485 85.6866 54.3396 81.9721 54.1432 76.7932L54.1396 76.6967C54.0725 74.9409 54.0602 74.6179 55.6496 74.453C57.2678 74.2851 60.4497 74.2811 62.0959 73.1265C63.7422 71.9718 63.8495 69.7342 63.8464 67.1533C63.8433 64.5724 63.7331 61.7343 63.678 59.4554C63.6229 57.1765 63.6229 55.5073 63.688 54.1343C63.7532 52.7612 63.8797 51.7159 63.9389 47.7539C63.9981 43.7918 64.5533 37.0152 63.6938 33.8203C62.8298 30.6085 59.3019 31.4726 58.0565 27.7082C57.0522 24.6727 56.633 18.7556 56.4904 15.67C56.3478 12.5843 56.4716 12.2582 57.597 12.2125Z" fill="white" stroke="black" stroke-width="2" stroke-linecap="round"/>
<path d="M155.727 17.0465C156.147 13.7385 156.203 12.0909 156.203 10.3027C156.429 9.62456 156.649 7.06046 156.853 6.23618C157.049 5.44284 157.022 4.48584 157.418 3.72409C157.784 3.01797 158.005 1.9496 158.802 1.52359C159.593 1.1011 161.122 0.780496 162.161 1.18831C163.095 1.55492 164.136 1.69609 164.672 2.2331C165.293 2.85541 166.083 3.59666 166.279 6.21924C166.42 8.10817 166.496 11.7309 166.674 14.2313C166.817 16.2464 167.231 19.8549 168.202 21.6846C168.459 22.1697 168.85 22.8403 170.831 23.1756C172.811 23.5109 176.282 23.4119 178.411 23.5972C181.329 23.8512 183.079 24.3217 184.432 24.9527C186.067 25.7156 186.95 26.1985 188.974 27.2388C190.076 27.8052 191.682 28.8102 192.075 29.949C192.386 30.8532 193.033 31.8841 192.549 38.011C192.318 40.9252 191.871 45.1721 191.446 48.1592C191.021 51.1463 190.694 52.844 190.262 54.0351C189.558 55.974 189.416 58.2477 187.013 60.1515C185.098 61.6687 184.021 62.5733 181.991 62.5713C180.299 62.5696 179.311 62.491 178.58 61.9481C177.817 61.3809 176.741 60.3972 176.72 58.8307C176.692 56.6869 176.82 53.8865 177.315 51.6094C177.596 50.3182 178.066 48.9032 178.132 46.5471C178.216 43.5889 178.338 41.0424 177.761 39.3293L177.735 39.2531C176.624 35.9548 176.129 34.4861 175.024 33.4703C174.318 32.8209 173.549 32.1028 172.622 31.6923C170.583 30.7889 167.465 29.8303 166.926 30.8227C166.757 31.1326 166.474 31.4349 166.39 31.8684C166.193 32.8852 166.165 33.6812 165.995 34.9452C165.855 35.9908 165.192 39.1249 164.664 42.9962C164.378 45.0943 163.931 48.95 163.708 51.0218C163.484 53.0936 163.497 53.3747 163.311 54.7218C162.803 58.4175 162.485 61.4837 161.9 62.5213C161.393 63.4214 160.854 64.277 160.064 64.4357C158.106 64.8285 155.929 64.8429 155.043 64.4602C154.845 64.3747 154.677 64.2629 154.593 63.948C154.509 63.633 154.545 63.1251 154.481 62.7923C154.282 61.7737 153.751 60.4477 153.691 59.2362C153.663 58.6732 153.426 57.53 153.495 51.6382C153.554 46.5844 153.778 37.5877 154.235 30.8151C154.692 24.0426 155.399 19.6328 155.727 17.0465Z" fill="white" stroke="black" stroke-width="2" stroke-linecap="round"/>
<path d="M209.789 33.5167C210.63 30.9862 211.503 27.4392 212.177 25.9465C212.223 25.5843 214.264 20.6337 214.447 20.4072C214.899 20.0016 215.544 19.7484 216.304 19.8686C217.161 20.0043 218.018 20.1665 218.381 20.7314C218.786 21.3635 219.361 21.9066 219.511 22.5397C220.051 24.8254 219.667 28.2101 219.553 29.9138L219.552 29.9328C219.415 31.9623 219.281 33.9501 218.918 35.7903C218.423 38.2985 218.361 41.9845 219.466 44.5643C220.143 46.1447 220.888 47.395 221.681 48.5851C222.406 49.6717 223.281 51.4804 224.667 51.701C224.94 51.7445 225.208 51.6549 225.481 51.4257C225.754 51.1964 226.074 50.8598 226.203 50.4747C226.654 49.1182 226.93 47.6497 227.377 46.1338C227.832 44.5928 228.26 43.1226 228.734 41.5664C229.188 40.0728 229.484 37.8919 229.819 36.0955C230.089 34.6467 230.69 33.2436 230.858 31.528C230.995 30.1267 231.418 28.9099 231.627 27.1871C231.809 25.6936 232.361 23.1584 234.118 21.8085C234.704 21.3581 236.328 20.7583 238.283 21.2713C239.316 21.5426 240.087 21.9878 240.583 22.7662C241.305 23.8975 241.553 24.9924 241.801 26.7463C242.027 28.3361 242.226 30.1336 242.344 31.9472C242.569 35.4227 242.096 40.7912 242.071 43.7341C242.027 49.1589 242.055 53.1287 242.299 53.9217C242.661 55.0978 243.383 57.9939 242.522 59.7087C242.385 59.9813 242.206 60.2499 241.839 60.3842C241.473 60.5185 240.925 60.5754 240.529 60.4724C239.308 60.155 237.832 59.947 237.231 58.8418C236.961 58.3453 236.572 53.9163 236.918 47.744C237.053 45.3226 236.933 42.831 237.189 39.3864C237.414 36.3559 237.93 34.1893 237.64 29.9911C237.593 29.3237 237.479 29.5901 237.459 29.9572C237.414 30.7697 237.336 31.7775 237.097 33.0758C236.872 34.2994 236.448 35.5279 236.374 36.9705C236.237 39.6333 236.109 41.9946 235.831 44.0204C235.602 45.6943 235.412 47.1798 234.971 48.5864C234.517 50.0352 234.193 51.4165 232.889 53.5161C232.075 54.8265 231.518 56.3804 230.312 56.9033C229.27 57.3551 228.182 58.2542 225.242 58.0306C222.281 57.8054 218.402 57.7918 217.334 56.9888C216.247 56.1722 214.369 54.7275 213.037 52.6438C211.998 51.0174 211.171 50.0702 210.643 48.5756C210.099 47.0346 208.563 43.5794 208.973 39.6184C209.198 37.4466 209.104 35.5731 209.789 33.5167Z" fill="white"/>
<path d="M212.23 25.832C211.55 27.2501 210.653 30.919 209.789 33.5167C209.104 35.5731 209.198 37.4466 208.973 39.6184C208.563 43.5794 210.099 47.0346 210.643 48.5756C211.171 50.0702 211.998 51.0174 213.037 52.6438C214.369 54.7275 216.247 56.1722 217.334 56.9888C218.402 57.7918 222.281 57.8054 225.242 58.0306C228.182 58.2542 229.27 57.3551 230.312 56.9033C231.518 56.3804 232.075 54.8265 232.889 53.5161C234.193 51.4165 234.517 50.0352 234.971 48.5864C235.412 47.1798 235.602 45.6943 235.831 44.0204C236.109 41.9946 236.237 39.6333 236.374 36.9705C236.448 35.5279 236.872 34.2994 237.097 33.0758C237.336 31.7775 237.414 30.7697 237.459 29.9572C237.479 29.5901 237.593 29.3237 237.64 29.9911C237.93 34.1893 237.414 36.3559 237.189 39.3864C236.933 42.831 237.053 45.3226 236.918 47.744C236.572 53.9163 236.961 58.3453 237.231 58.8418C237.832 59.947 239.308 60.155 240.529 60.4724C240.925 60.5754 241.473 60.5185 241.839 60.3842C242.206 60.2499 242.385 59.9813 242.522 59.7087C243.383 57.9939 242.661 55.0978 242.299 53.9217C242.055 53.1287 242.027 49.1589 242.071 43.7341C242.096 40.7912 242.569 35.4227 242.344 31.9472C242.226 30.1336 242.027 28.3361 241.801 26.7463C241.553 24.9924 241.305 23.8975 240.583 22.7662C240.087 21.9878 239.316 21.5426 238.283 21.2713C236.328 20.7583 234.704 21.3581 234.118 21.8085C232.361 23.1584 231.809 25.6936 231.627 27.1871C231.418 28.9099 230.995 30.1267 230.858 31.528C230.69 33.2436 230.089 34.6467 229.819 36.0955C229.484 37.8919 229.188 40.0728 228.734 41.5664C228.26 43.1226 227.832 44.5928 227.377 46.1338C226.93 47.6497 226.654 49.1182 226.203 50.4747C226.074 50.8598 225.754 51.1964 225.481 51.4257C225.208 51.6549 224.94 51.7445 224.667 51.701C223.281 51.4805 222.406 49.6717 221.681 48.5851C220.888 47.395 220.143 46.1447 219.466 44.5643C218.361 41.9845 218.423 38.2985 218.918 35.7903C219.282 33.9443 219.416 31.9499 219.553 29.9138C219.667 28.2101 220.051 24.8254 219.511 22.5397C219.361 21.9066 218.786 21.3635 218.381 20.7314C218.018 20.1665 217.161 20.0043 216.304 19.8686C215.544 19.7484 214.899 20.0016 214.447 20.4072C214.264 20.6337 212.223 25.5843 212.177 25.9465" stroke="black" stroke-width="2" stroke-linecap="round"/>
<path fill-rule="evenodd" clip-rule="evenodd" d="M260.035 4.23108C260.106 6.20938 260.22 9.33766 258.549 13.6701C257.25 17.0373 257.22 20.5192 257.264 24.677C257.271 25.247 257.291 26.008 257.317 26.9468C257.382 29.3237 257.478 32.8398 257.446 37.2792C257.427 39.9111 257.221 41.5794 257.057 42.9039C256.996 43.3996 256.941 43.8471 256.904 44.2789C256.829 45.1421 256.677 47.6553 256.632 50.9544C256.574 55.2548 256.585 60.6916 257.037 62.0956C257.498 63.5304 259.293 64.1317 261.687 64.8561C263.581 65.4294 265.018 65.5742 266.349 65.7084L266.439 65.7175C266.641 65.7379 266.862 65.7621 267.099 65.788C268.594 65.9513 270.729 66.1845 272.766 65.9902C275.739 65.7065 277.057 65.1505 278.263 64.6417L278.265 64.6412C278.378 64.5934 278.49 64.5461 278.603 64.4994C279.875 63.9717 280.794 63.3398 282.079 62.456L282.13 62.4212C283.221 61.671 284.319 60.6347 285.357 59.6556C285.753 59.2818 286.141 58.9162 286.515 58.5781C287.92 57.3109 288.686 55.9112 289.908 53.6091C290.863 51.8103 291.041 49.6765 291.088 43.2696C291.111 40.1388 289.332 37.4678 287.972 35.8793C286.865 34.5857 285.441 33.3005 282.644 31.1802C280.685 29.6954 278.843 29.5022 272.573 29.3625C270.65 29.3196 269.358 29.6543 268.209 29.952C267.902 30.0316 267.604 30.1086 267.308 30.175C267.264 30.185 267.221 30.1979 267.18 30.21C266.913 30.2895 266.756 30.3365 266.985 29.3286C267.451 27.285 267.978 25.4948 268.366 24.1758C268.685 23.0901 268.91 22.3237 268.931 21.9979C268.976 21.2652 269.157 17.5945 269.023 11.9487C268.941 8.50337 268.307 7.70435 267.691 6.92761C267.376 6.53147 267.067 6.14114 266.837 5.40853C266.588 4.61261 266.452 3.90059 266.33 3.26585C266.194 2.5522 266.076 1.93623 265.837 1.40853C265.731 1.17437 260.532 1.71271 260.337 1.908C259.964 2.28161 259.992 3.05215 260.035 4.23108ZM266.572 42.0362C268.057 40.789 269.39 39.6696 271.278 41.104C272.337 41.9085 275.61 48.0162 275.337 49.9085C275.291 50.028 275.243 50.1602 275.191 50.3016C274.733 51.5555 274.014 53.527 272.268 53.6464C270.959 53.7359 269.731 53.6585 268.971 53.2367C267.242 52.2763 264.536 50.394 263.819 49.0749C263.549 48.5784 263.364 47.8374 263.506 47.0387C263.531 46.898 263.555 46.7517 263.579 46.6014C263.774 45.3971 264.011 43.9379 265.276 43.0586C265.73 42.7431 266.157 42.3847 266.572 42.0362Z" fill="white" stroke="black" stroke-width="2" stroke-linecap="round"/>
<path d="M306.5 66.9391C304.416 66.3897 302.337 61.9084 306.5 61.3325C306.957 61.2693 307.506 61.3325 307.869 61.3787C308.231 61.4248 308.499 61.5143 308.68 61.6974C308.95 62.1492 309.755 64.4247 308.628 65.7236C308.041 66.4005 307.291 67.1478 306.5 66.9391Z" fill="white" stroke="black" stroke-width="2" stroke-linecap="round"/>
<path d="M330.444 31.3899C333.739 30.0401 335.733 29.3184 337.798 29.3188C339.26 29.3192 339.884 29.5002 340.336 29.5911C340.788 29.682 341.056 29.7716 341.375 30.0008C342.052 30.5882 343.07 32.2014 342.364 33.8032C341.585 35.5694 339.974 37.0276 338.833 37.5051C337.429 38.0925 336.153 38.2836 333.449 38.589C331.455 38.8142 329.239 38.8278 328.615 39.9944C327.939 41.2614 326.657 42.4109 327.534 48.0997C327.944 50.7571 329.11 52.2918 330.159 53.2871C331.113 54.1919 332.324 55.0416 333.914 55.5918C335.09 55.9988 336.29 56.519 337.577 56.9483C339.073 57.4475 340.961 57.7791 341.462 58.8054C341.596 59.0808 341.685 59.5464 341.55 59.9829C341.048 61.6094 339.98 62.493 338.924 63.5519C337.885 64.5937 337.386 66.5888 336.075 66.6245C334.531 66.6665 332.57 66.7685 329.778 64.3496C325.757 60.866 322.455 57.2867 321.561 53.9056C321.156 52.3714 320.493 49.207 321.207 44.8874C321.886 40.7839 322.527 37.9564 323.562 36.6329C324.691 35.1895 327.016 32.794 330.444 31.3899Z" fill="white" stroke="black" stroke-width="2" stroke-linecap="round"/>
<path fill-rule="evenodd" clip-rule="evenodd" d="M367.827 29.3196C366.929 29.4986 364.847 29.9477 362.991 31.1672C361.006 32.4721 357.18 36.1606 353.723 40.7891C351.151 44.2341 351.363 49.2919 352.395 53.1756C353.213 56.2531 356.288 58.1552 358.838 59.7327C358.963 59.8103 359.088 59.8875 359.211 59.9637C362.222 61.8342 365.816 62.6863 368.841 63.0932C372.755 63.6198 376.036 61.5224 377.721 59.9813C379.213 58.6163 380.295 56.6388 382.105 51.5423C383.223 48.3923 383.15 46.4894 383.065 44.2827C383.041 43.6604 383.016 43.0139 383.016 42.3084C383.02 38.4944 378.955 34.0336 377.235 32.2633C375.686 30.6691 374.036 30.3803 371.807 29.9903C371.285 29.899 370.731 29.8022 370.14 29.6818C369.096 29.5896 368.458 29.5 367.827 29.3196ZM364.991 40.0783C367.384 39.8992 368.633 40.4323 369.817 41.348C369.964 41.4615 370.134 41.5675 370.325 41.6863C370.927 42.0616 371.736 42.5652 372.663 43.8386C373.068 46.5354 373.233 51.6353 371.795 52.8813C371.429 53.1987 370.903 53.5373 370.254 53.6016C368.9 53.7359 366.698 53.899 365.008 52.6452C364.818 52.5036 364.626 52.3631 364.436 52.2233C362.555 50.8421 360.777 49.5367 360.677 48.0289C360.587 46.6738 360.476 44.5088 361.452 42.6923C362.129 41.4321 363.15 40.2161 364.991 40.0783Z" fill="white" stroke="black" stroke-width="2" stroke-linecap="round"/>
<path d="M395.018 41.055C397.588 32.7177 398.842 28.9547 398.842 28.7756C399.205 27.9563 399.838 26.3312 399.928 26.0585C400.109 25.5172 401.289 24.158 402.644 23.0755C404.469 22.5356 407.309 22.504 408.342 23.3522L408.351 23.3599C409.343 24.1748 410.49 25.1166 411.007 26.338C411.506 27.5168 412.153 30.4791 411.592 32.3067C411.23 33.4855 409.801 36.3435 410.691 35.7835C411.053 35.5556 411.468 34.9789 411.913 34.469C412.863 33.3824 414.468 30.4183 416.717 30.4482C420.28 30.4957 421.59 30.5879 422.496 31.5837C423.9 33.1274 424.829 34.7326 425.433 36.0602C426.157 37.6528 426.855 39.635 427.15 41.1744C427.6 43.5239 428.619 45.0274 427.825 50.2211C427.508 52.2979 427.518 54.4298 426.739 55.8656C425.875 57.4582 424.27 59.8243 422.984 60.8386C421.897 61.696 419.194 62.3783 417.558 61.5563C417.285 61.4192 417.017 61.2402 416.882 60.6894C416.748 60.1387 416.72 59.2405 416.794 58.6573C417.019 56.8884 417.353 54.937 417.609 53.1864C418.105 49.8073 418.148 45.23 417.514 44.0095C416.927 42.8782 416.601 41.0034 414.932 40.3496C414.474 40.1705 413.729 39.9902 413.442 40.3089C412.586 41.2612 412.17 42.6622 411.002 44.8804C410.144 46.5082 409.678 47.8093 408.873 49.2715C408.649 49.6791 408.397 50.1023 408.132 50.5284C408.097 50.8871 408.06 51.2326 408.023 51.56C407.772 53.7457 405.988 55.6323 405.851 55.6811C404.073 56.3148 406.374 53.3573 408.132 50.5284C408.387 47.8846 408.527 44.5289 408.02 42.5146C407.61 40.8868 407.145 39.2243 405.846 38.677C405.527 38.5427 405.14 38.4493 404.851 38.5888C403.812 39.0907 402.512 40.2126 401.643 41.7577C401.007 42.889 399.975 44.8366 398.34 47.3222C397.209 49.0422 396.579 50.5411 394.042 54.3341C392.868 56.0908 391.976 58.4165 391.108 57.8027C390.974 57.7078 390.974 57.3496 391.666 54.311C392.358 51.2724 393.589 45.6885 395.018 41.055Z" fill="white" stroke="black" stroke-width="2" stroke-linecap="round"/>
</svg>
