<svg width="148" height="68" viewBox="0 0 148 68" fill="none" xmlns="http://www.w3.org/2000/svg">
<path d="M52.4277 13.8596C52.0244 10.495 49.2698 4.53206 47.9272 1.61001C51.0773 1.27229 53.4691 1.27308 54.9659 1.33205C58.4797 1.62384 62.9303 2.09491 65.3824 2.74001C65.7357 2.91754 66.1966 3.13121 66.2578 3.86322C66.5513 7.37522 63.8993 17.8083 68.2722 18.6178C69.5254 18.8499 72.5287 18.5242 73.0058 20.4037C74.1659 24.9739 74.5939 29.7016 73.1622 29.9255C72.0496 30.0995 67.2313 26.9908 66.5443 30.1136C66.0802 32.2229 66.0226 34.1102 66.5531 34.6152C67.7255 35.7314 69.2235 37.0124 70.6557 38.1887C71.9441 39.2469 72.9521 40.7042 80.1001 44.5219C82.7297 45.9263 85.2711 46.8572 85.8849 48.4435C85.9991 48.7388 85.8996 49.0886 85.8251 49.6792C85.289 53.9277 84.0883 60.6225 81.3622 62.0379C79.8997 62.7973 78.0663 63.4975 76.5002 63.0258C75.3331 62.6743 74.1571 61.9559 72.8687 61.1485C70.9949 59.9743 68.7482 57.9814 66.4248 56.167C64.5475 54.7011 62.8012 53.7227 61.5048 52.8291C59.9773 51.7762 58.1207 50.8128 55.7024 49.4893C53.8814 48.4927 50.4893 47.6351 50.4942 45.856C50.496 45.2127 50.3118 43.6373 50.6717 41.6901C51.083 39.4648 51.3047 37.5071 52.0797 35.7173C52.5741 34.5755 52.5674 32.8184 52.8757 31.7438C52.6399 31.7665 52.3498 31.7847 51.9918 31.7992C50.5628 31.8573 48.1265 31.8573 46.9084 29.8851C45.6903 27.9128 45.6903 24.0845 46.8855 22.1703C48.0808 20.2561 50.9291 20.7241 51.5612 19.4791C52.7213 17.194 52.5754 15.0917 52.4277 13.8596Z" fill="white"/>
<path d="M47.7996 1.33205C49.0862 4.13743 52.0111 10.3845 52.4277 13.8596C52.5754 15.0917 52.7213 17.194 51.5612 19.4791C50.9291 20.7241 48.0808 20.2561 46.8855 22.1703C45.6903 24.0845 45.6903 27.9128 46.9084 29.8851C48.1265 31.8573 50.5628 31.8573 51.9918 31.7992C53.4209 31.7412 53.7689 31.6252 53.8902 31.3914C54.0115 31.1577 53.8955 30.8096 53.7777 30.8044C52.4144 30.7433 52.8408 33.9595 52.0797 35.7173C51.3047 37.5071 51.083 39.4648 50.6717 41.6901C50.3118 43.6373 50.496 45.2127 50.4942 45.856C50.4893 47.6351 53.8814 48.4927 55.7024 49.4893C58.1207 50.8128 59.9773 51.7762 61.5048 52.8291C62.8012 53.7227 64.5475 54.7011 66.4248 56.167C68.7482 57.9814 70.9949 59.9743 72.8687 61.1485C74.1571 61.9559 75.3331 62.6743 76.5002 63.0258C78.0663 63.4975 79.8997 62.7973 81.3622 62.0379C84.0883 60.6225 85.289 53.9277 85.8251 49.6792C85.8996 49.0886 85.9991 48.7388 85.8849 48.4435C85.2711 46.8572 82.7297 45.9263 80.1001 44.5219C72.9521 40.7042 71.9441 39.2469 70.6557 38.1887C69.2235 37.0124 67.7255 35.7314 66.5531 34.6152C66.0226 34.1102 66.0802 32.2229 66.5443 30.1136C67.2313 26.9908 72.0496 30.0995 73.1622 29.9255C74.5939 29.7016 74.1659 24.9739 73.0058 20.4037C72.5287 18.5242 69.5254 18.8499 68.2722 18.6178C63.8993 17.8083 66.5513 7.37522 66.2578 3.86322C66.1966 3.13121 65.7357 2.91754 65.3824 2.74001C62.9303 2.09491 58.4797 1.62384 54.9659 1.33205C53.449 1.27228 51.0127 1.27228 47.7996 1.62384" stroke="black" stroke-width="2" stroke-linecap="round"/>
<path d="M105.93 25.3931C106.005 21.7175 105.644 19.8235 105.625 19.3054C105.59 18.3897 105.55 17.7414 105.93 16.1209L105.958 16.0019C106.364 14.274 106.609 13.2305 107.533 10.0536C109.423 3.55793 109.65 0.997886 110.149 1.00001C110.417 1.00115 110.717 1.10021 112.146 1.11395C116.056 1.15155 119.157 0.998626 122.578 1.00001C125.396 1.00115 130.284 1.07635 134.006 1.34638C137.728 1.61642 140.219 2.02572 141.682 2.37069C143.607 2.82417 145.307 3.14276 146.531 4.38741C147.02 4.88418 147.092 5.42436 146.904 6.21612C146.026 9.90204 145.389 14.2199 142.229 15.436C140.859 15.9636 138.179 15.4219 135.39 14.8983C132.957 14.4414 128.779 11.8598 128.066 14.4163C127.652 15.8975 127.591 17.2662 127.423 17.9814C127.271 18.6252 127.041 22.3345 127.045 27.4144C127.046 29.185 127.102 29.472 128.592 29.9108C132.845 31.163 136.885 31.126 137.756 32.2215C138.058 32.6009 138.515 33.1129 138.514 34.2074C138.512 37.7715 138.309 39.7348 137.942 41.798C137.523 44.1566 137.407 46.7676 136.955 49.5846C136.534 52.2143 135.644 54.5699 134.627 57.0123C134.171 57.2003 128.309 68.8368 121.864 66.7495C116.852 65.1259 108.58 62.1931 104.173 60.533C99.7667 58.8729 99.1085 58.5532 99.0159 58.1539C98.8667 57.5102 99.7552 56.3915 100.961 51.3359C101.756 48.0009 102.14 45.5106 102.667 45.5876C103.198 45.6651 108.9 48.1105 113.456 48.2846C114.441 48.3222 115.661 48.49 116.262 47.8254C116.64 47.4084 116.956 46.8992 117.173 46.0343C117.781 43.6051 119.434 40.6499 118.649 36.0863C118.533 35.4106 118.309 35.5075 117.924 35.5234C117.013 35.561 116.18 35.4654 115.455 35.3708C112.199 34.9458 105.229 35.3681 105.283 33.6583C105.322 32.4391 105.817 30.9413 105.93 25.3931Z" fill="white" stroke="black" stroke-width="2" stroke-linecap="round"/>
<path d="M4.52187 24.4179C11.9291 14.6021 14.5835 10.111 18.9022 9.89297C19.1089 9.96601 19.3298 10.0462 19.5744 10.138C20.2427 10.3889 21.0625 10.7169 21.8103 10.9653C25.5591 12.3863 32.8754 15.5459 33.0643 20.9473C33.3102 27.9829 33.1136 33.6433 32.3115 35.652C31.1538 38.5512 30.0525 44.2701 26.923 45.7483C25.3504 46.4911 22.7086 46.732 17.726 46.4042C13.9126 46.1533 8.22853 45.317 5.56031 42.2554C3.31945 39.6841 0.426166 36.999 1.09847 32.3131C1.3469 30.5815 1.73845 28.1064 4.52187 24.4179Z" fill="white"/>
<path d="M22.3792 10.5479C22.0513 10.22 21.0625 9.8871 19.2465 9.88461C14.7199 9.87842 12.1239 14.344 4.52187 24.4179C1.73845 28.1064 1.3469 30.5815 1.09847 32.3131C0.426166 36.999 3.31945 39.6841 5.56031 42.2554C8.22853 45.317 13.9126 46.1533 17.726 46.4042C22.7086 46.732 25.3504 46.4911 26.923 45.7483C30.0525 44.2701 31.1538 38.5512 32.3115 35.652C33.1136 33.6433 33.3102 27.9829 33.0643 20.9473C32.8754 15.5459 25.5591 12.3863 21.8103 10.9653C21.0625 10.7169 20.2427 10.3889 19.5744 10.138C18.9061 9.8871 18.4142 9.72313 17.9074 9.5542" stroke="black" stroke-width="2" stroke-linecap="round"/>
<path d="M24.1546 19.3353C22.4851 18.0832 20.5121 17.3686 18.6866 17.298C17.0388 17.2342 14.6858 19.1119 12.952 20.9447C10.8017 23.2179 11.2962 26.9155 11.5755 28.9538C11.8924 31.2669 13.3999 33.3826 14.8386 35.7678C15.4457 36.7743 16.1423 37.1116 16.5977 37.2518C17.9865 37.6793 20.1411 37.0462 21.2004 36.4118C21.6209 36.1314 21.975 35.7794 22.2902 35.3588C22.4662 35.147 22.6749 34.9383 22.8899 34.5125" stroke="black" stroke-width="2" stroke-linecap="round"/>
</svg>
