<svg width="35" height="39" viewBox="0 0 35 39" fill="none" xmlns="http://www.w3.org/2000/svg">
<path d="M4.52187 15.864C11.9291 6.04815 14.5835 1.557 18.9022 1.33901C19.1089 1.41205 19.3298 1.49223 19.5744 1.58406C20.2427 1.83498 21.0625 2.16291 21.8103 2.41134C25.5591 3.83237 32.8754 6.99193 33.0643 12.3934C33.3102 19.429 33.1136 25.0894 32.3115 27.0981C31.1538 29.9973 30.0525 35.7161 26.923 37.1944C25.3504 37.9372 22.7086 38.1781 17.726 37.8502C13.9126 37.5993 8.22853 36.763 5.56031 33.7014C3.31945 31.1301 0.426166 28.4451 1.09847 23.7591C1.3469 22.0276 1.73845 19.5524 4.52187 15.864Z" fill="white"/>
<path d="M22.3792 1.99397C22.0513 1.66604 21.0625 1.33314 19.2465 1.33066C14.7199 1.32447 12.1239 5.79002 4.52187 15.864C1.73845 19.5524 1.3469 22.0276 1.09847 23.7591C0.426166 28.4451 3.31945 31.1301 5.56031 33.7014C8.22853 36.763 13.9126 37.5993 17.726 37.8502C22.7086 38.1781 25.3504 37.9372 26.923 37.1944C30.0525 35.7161 31.1538 29.9973 32.3115 27.0981C33.1136 25.0894 33.3102 19.429 33.0643 12.3934C32.8754 6.99193 25.5591 3.83237 21.8103 2.41134C21.0625 2.16291 20.2427 1.83498 19.5744 1.58406C18.9061 1.33314 18.4142 1.16918 17.9074 1.00024" stroke="black" stroke-width="2" stroke-linecap="round"/>
<path d="M24.1546 10.7813C22.4851 9.52922 20.5121 8.81463 18.6866 8.74401C17.0388 8.68027 14.6858 10.5579 12.952 12.3908C10.8017 14.6639 11.2962 18.3615 11.5755 20.3999C11.8924 22.713 13.3999 24.8287 14.8386 27.2138C15.4457 28.2203 16.1423 28.5576 16.5977 28.6978C17.9865 29.1254 20.1411 28.4923 21.2004 27.8578C21.6209 27.5774 21.975 27.2254 22.2902 26.8049C22.4662 26.593 22.6749 26.3843 22.8899 25.9585" stroke="black" stroke-width="2" stroke-linecap="round"/>
</svg>
