<svg width="103" height="68" viewBox="0 0 103 68" fill="none" xmlns="http://www.w3.org/2000/svg">
<path d="M7.43583 13.8596C7.03249 10.495 4.27788 4.53206 2.93528 1.61001C6.08539 1.27229 8.47723 1.27308 9.97403 1.33205C13.4878 1.62384 17.9384 2.09491 20.3905 2.74001C20.7438 2.91754 21.2047 3.13121 21.2659 3.86322C21.5594 7.37522 18.9074 17.8083 23.2802 18.6178C24.5335 18.8499 27.5368 18.5242 28.0139 20.4037C29.174 24.9739 29.602 29.7016 28.1703 29.9255C27.0577 30.0995 22.2394 26.9908 21.5524 30.1136C21.0883 32.2229 21.0307 34.1102 21.5612 34.6152C22.7336 35.7314 24.2316 37.0124 25.6638 38.1887C26.9522 39.2469 27.9601 40.7042 35.1082 44.5219C37.7378 45.9263 40.2792 46.8572 40.893 48.4435C41.0072 48.7388 40.9077 49.0886 40.8332 49.6792C40.2971 53.9277 39.0963 60.6225 36.3703 62.0379C34.9078 62.7973 33.0744 63.4975 31.5083 63.0258C30.3412 62.6743 29.1652 61.9559 27.8768 61.1485C26.003 59.9743 23.7563 57.9814 21.4328 56.167C19.5556 54.7011 17.8093 53.7227 16.5129 52.8291C14.9854 51.7762 13.1288 50.8128 10.7105 49.4893C8.88949 48.4927 5.49743 47.6351 5.5023 45.856C5.50405 45.2127 5.31993 43.6373 5.67983 41.6901C6.09114 39.4648 6.31279 37.5071 7.08779 35.7173C7.58218 34.5755 7.57552 32.8184 7.88378 31.7438C7.64804 31.7665 7.35789 31.7847 6.9999 31.7992C5.57085 31.8573 3.1346 31.8573 1.91647 29.8851C0.698345 27.9128 0.698345 24.0845 1.89362 22.1703C3.08889 20.2561 5.93718 20.7241 6.56925 19.4791C7.72937 17.194 7.58353 15.0917 7.43583 13.8596Z" fill="white"/>
<path d="M2.80765 1.33205C4.09433 4.13743 7.01924 10.3845 7.43583 13.8596C7.58353 15.0917 7.72937 17.194 6.56925 19.4791C5.93718 20.7241 3.08889 20.2561 1.89362 22.1703C0.698345 24.0845 0.698345 27.9128 1.91647 29.8851C3.1346 31.8573 5.57085 31.8573 6.9999 31.7992C8.42896 31.7412 8.777 31.6252 8.89828 31.3914C9.01957 31.1577 8.90355 30.8096 8.78579 30.8044C7.4225 30.7433 7.8489 33.9595 7.08779 35.7173C6.31279 37.5071 6.09114 39.4648 5.67983 41.6901C5.31993 43.6373 5.50405 45.2127 5.5023 45.856C5.49743 47.6351 8.88949 48.4927 10.7105 49.4893C13.1288 50.8128 14.9854 51.7762 16.5129 52.8291C17.8093 53.7227 19.5556 54.7011 21.4328 56.167C23.7563 57.9814 26.003 59.9743 27.8768 61.1485C29.1652 61.9559 30.3412 62.6743 31.5083 63.0258C33.0744 63.4975 34.9078 62.7973 36.3703 62.0379C39.0963 60.6225 40.2971 53.9277 40.8332 49.6792C40.9077 49.0886 41.0072 48.7388 40.893 48.4435C40.2792 46.8572 37.7378 45.9263 35.1082 44.5219C27.9602 40.7042 26.9522 39.2469 25.6638 38.1887C24.2316 37.0124 22.7336 35.7314 21.5612 34.6152C21.0307 34.1102 21.0883 32.2229 21.5524 30.1136C22.2394 26.9908 27.0577 30.0995 28.1703 29.9255C29.602 29.7016 29.174 24.9739 28.0139 20.4037C27.5368 18.5242 24.5335 18.8499 23.2802 18.6178C18.9074 17.8083 21.5594 7.37522 21.2659 3.86322C21.2047 3.13121 20.7438 2.91754 20.3905 2.74001C17.9384 2.09491 13.4878 1.62384 9.97403 1.33205C8.45708 1.27228 6.02083 1.27228 2.80765 1.62384" stroke="black" stroke-width="2" stroke-linecap="round"/>
<path d="M60.9384 25.3931C61.0136 21.7175 60.6525 19.8235 60.633 19.3054C60.5985 18.3897 60.5578 17.7414 60.9384 16.1209L60.9663 16.0019C61.372 14.274 61.6169 13.2305 62.5413 10.0536C64.4314 3.55793 64.6583 0.997886 65.1572 1.00001C65.4249 1.00115 65.7252 1.10021 67.1543 1.11395C71.0644 1.15155 74.1647 0.998626 77.5857 1.00001C80.4043 1.00115 85.2918 1.07635 89.0139 1.34638C92.736 1.61642 95.2266 2.02572 96.6905 2.37069C98.6147 2.82417 100.315 3.14276 101.539 4.38741C102.028 4.88418 102.1 5.42436 101.912 6.21612C101.035 9.90204 100.397 14.2199 97.2373 15.436C95.8667 15.9636 93.1874 15.4219 90.3982 14.8983C87.9646 14.4414 83.7874 11.8598 83.0736 14.4163C82.6601 15.8975 82.5994 17.2662 82.4311 17.9814C82.2796 18.6252 82.0496 22.3345 82.0528 27.4144C82.054 29.185 82.1097 29.472 83.6 29.9108C87.853 31.163 91.8927 31.126 92.7645 32.2215C93.0664 32.6009 93.5228 33.1129 93.5221 34.2074C93.5198 37.7715 93.3169 39.7348 92.9502 41.798C92.5309 44.1566 92.4151 46.7676 91.9635 49.5846C91.542 52.2143 90.6522 54.5699 89.6348 57.0123C89.1791 57.2003 83.3169 68.8368 76.8725 66.7495C71.8596 65.1259 63.5883 62.1931 59.1816 60.533C54.7748 58.8729 54.1166 58.5532 54.024 58.1539C53.8748 57.5102 54.7633 56.3915 55.9688 51.3359C56.764 48.0009 57.1477 45.5106 57.6754 45.5876C58.2063 45.6651 63.908 48.1105 68.4645 48.2846C69.4489 48.3222 70.6696 48.49 71.2706 47.8254C71.6477 47.4084 71.9643 46.8992 72.1809 46.0343C72.7893 43.6051 74.4423 40.6499 73.6574 36.0863C73.5412 35.4106 73.3171 35.5075 72.9317 35.5234C72.0214 35.561 71.1877 35.4654 70.4628 35.3708C67.2067 34.9458 60.2369 35.3681 60.2912 33.6583C60.33 32.4391 60.8249 30.9413 60.9384 25.3931Z" fill="white" stroke="black" stroke-width="2" stroke-linecap="round"/>
</svg>
